<?xml version="1.0" encoding="utf-8"?>
<!-- Generator: Adobe Illustrator 23.0.3, SVG Export Plug-In . SVG Version: 6.00 Build 0)  -->
<svg version="1.1" id="Слой_1" xmlns="http://www.w3.org/2000/svg" xmlns:xlink="http://www.w3.org/1999/xlink" x="0px" y="0px"
	 viewBox="0 0 500 500" style="enable-background:new 0 0 500 500;" xml:space="preserve">
<style type="text/css">
	.st0{fill:#00FF90;stroke:#000333;stroke-width:3;stroke-miterlimit:10;}
	.st1{fill:#00FF90;stroke:#000000;stroke-width:3;stroke-miterlimit:10;}
	.st2{fill:#FFFFFF;stroke:#000000;stroke-miterlimit:10;}
	.st3{fill:none;stroke:#000000;stroke-miterlimit:10;}
	.st4{fill:none;stroke:#000000;stroke-width:5;stroke-miterlimit:10;}
	.st5{fill:#FFFFFF;stroke:#000000;stroke-width:3;stroke-miterlimit:10;}
	.st6{fill:#81FFFF;}
	.st7{stroke:#000000;stroke-width:5;stroke-miterlimit:10;}
	.st8{fill:#000333;stroke:#000000;stroke-width:3;stroke-miterlimit:10;}
	.st9{fill:#FFFFFF;}
</style>
<path class="st0" d="M409.15,19.09c-15.6,0-28.4,12.27-29.72,27.91c-36.01,17.79-73.02,69.63-73.02,69.63l22.13,8.94
	c31.74-39.12,58.56-54.09,58.56-54.09L387.8,71c5.42,5.69,12.98,9.22,21.35,9.22c16.48,0,29.84-13.69,29.84-30.57
	C438.99,32.78,425.63,19.09,409.15,19.09z"/>
<path class="st0" d="M114.11,2.33c15.6,0,28.4,12.27,29.72,27.91c36.01,17.79,74.62,73.55,74.62,73.55l-23.74,5.03
	c-31.74-39.12-58.56-54.09-58.56-54.09l0,0c-0.4-0.28-0.94-0.22-1.28,0.12c-5.37,5.33-12.69,8.62-20.76,8.62
	c-16.48,0-29.84-13.69-29.84-30.57C84.27,16.01,97.63,2.33,114.11,2.33z"/>
<path class="st1" d="M432.74,241.82c-7.38-45.84-52.97-125.64-200.5-139.72c0,0-75.77,6.71-98.57,42.25s-60.35,87.84-67.73,215.92
	s166.3,136.79,166.3,136.79l4.65-0.12l-0.62,0.12c0,0,1.42-0.06,4.04-0.21h0h0c18.2-1.05,94.54-6.72,158.14-30.08
	c0.74-0.19,1.44-0.38,2.11-0.56c1.17-0.32,2.31-0.84,3.42-1.53c0.01,0,0.02-0.01,0.03-0.01l-0.02,0
	C435.1,445.31,439.86,286.08,432.74,241.82z"/>
<path class="st2" d="M152.18,145.47"/>
<path class="st3" d="M384.64,43.99"/>
<path class="st4" d="M200.57,393.8c0,0,65.81,26.49,117.06-14.75"/>
<circle class="st5" cx="194.37" cy="260.3" r="42.19"/>
<circle class="st6" cx="197.99" cy="261.97" r="24.24"/>
<path class="st7" d="M187.5,258.12"/>
<circle class="st5" cx="326.49" cy="269.69" r="42.19"/>
<circle class="st8" cx="200.46" cy="263.47" r="13.5"/>
<g>
	<circle class="st6" cx="328.08" cy="266.06" r="24.24"/>
</g>
<circle class="st8" cx="330.55" cy="267.57" r="13.5"/>
<circle class="st9" cx="209.35" cy="257.1" r="6.38"/>
<circle class="st9" cx="339.44" cy="261.2" r="6.38"/>
<path class="st5" d="M204.93,245.45"/>
<path class="st5" d="M211.94,244.41"/>
<path class="st5" d="M199.27,245.45"/>
</svg>
