<?xml version="1.0" encoding="utf-8"?>
<!-- Generator: Adobe Illustrator 23.0.3, SVG Export Plug-In . SVG Version: 6.00 Build 0)  -->
<svg version="1.1" id="Слой_1" xmlns="http://www.w3.org/2000/svg" xmlns:xlink="http://www.w3.org/1999/xlink" x="0px" y="0px"
	 viewBox="0 0 500 500" style="enable-background:new 0 0 500 500;" xml:space="preserve">
<style type="text/css">
	.st0{fill:url(#SVGID_1_);}
	.st1{fill:url(#SVGID_2_);}
	.st2{fill:#8C0000;}
	.st3{fill:#640001;}
	.st4{opacity:0.5;fill:#DC0000;}
	.st5{fill:#DC0000;}
	.st6{opacity:0.5;}
	.st7{fill:#00FFFF;}
</style>
<linearGradient id="SVGID_1_" gradientUnits="userSpaceOnUse" x1="36.6033" y1="125.873" x2="463.8647" y2="372.5525">
	<stop  offset="1.657926e-06" style="stop-color:#FFB900"/>
	<stop  offset="1" style="stop-color:#DC0046"/>
</linearGradient>
<circle class="st0" cx="250.23" cy="249.21" r="246.64"/>
<radialGradient id="SVGID_2_" cx="313.8819" cy="255.4028" r="213.6596" gradientUnits="userSpaceOnUse">
	<stop  offset="1.657926e-06" style="stop-color:#FFFFFF"/>
	<stop  offset="1" style="stop-color:#A0A0A0"/>
</radialGradient>
<path class="st1" d="M327.56,14.95c75.9,42.05,127.3,122.96,127.3,215.88c0,136.21-110.42,246.64-246.64,246.64
	c-27.01,0-53-4.36-77.32-12.38c35.37,19.59,76.05,30.76,119.34,30.76c136.21,0,246.64-110.42,246.64-246.64
	C496.87,140.01,425.89,47.4,327.56,14.95z"/>
<g>
	
		<ellipse transform="matrix(0.3817 -0.9243 0.9243 0.3817 26.1966 322.2912)" class="st2" cx="254" cy="141.56" rx="11.14" ry="9.4"/>
	<path class="st3" d="M258.26,131.27c-0.23-0.1-0.47-0.18-0.7-0.25c4.31,2.27,6,8.16,3.77,13.57c-2.24,5.41-7.59,8.39-12.24,6.96
		c0.22,0.11,0.44,0.22,0.67,0.32c4.8,1.98,10.6-1.02,12.95-6.71S263.06,133.25,258.26,131.27z"/>
</g>
<g>
	
		<ellipse transform="matrix(0.3817 -0.9243 0.9243 0.3817 -16.0274 349.0392)" class="st2" cx="252.89" cy="186.5" rx="7.77" ry="8.28"/>
	<path class="st3" d="M255.85,179.32c-0.2-0.08-0.41-0.16-0.62-0.23c3.82,1.92,5.65,6.29,4.09,10.06c-1.56,3.77-5.94,5.58-10,4.25
		c0.19,0.1,0.39,0.19,0.6,0.27c4.22,1.74,8.98-0.06,10.61-4.02C262.17,185.69,260.07,181.06,255.85,179.32z"/>
</g>
<g>
	
		<ellipse transform="matrix(0.3817 -0.9243 0.9243 0.3817 14.5429 390.4236)" class="st2" cx="299.1" cy="184.34" rx="41.25" ry="23.81"/>
	<path class="st3" d="M314.85,146.22c-0.59-0.24-1.19-0.43-1.8-0.59c10.7,6.22,12.85,26.33,4.57,46.37
		c-8.28,20.04-23.98,32.77-35.96,29.63c0.54,0.32,1.1,0.61,1.69,0.85c12.15,5.02,29.06-7.98,37.75-29.04S327,151.24,314.85,146.22z"
		/>
</g>
<g>
	
		<ellipse transform="matrix(0.3934 -0.9194 0.9194 0.3934 -97.6511 240.691)" class="st2" cx="133.57" cy="194.35" rx="37.85" ry="30.52"/>
	<path class="st3" d="M148.46,159.55c0.75,0.32,1.47,0.68,2.17,1.07c-15.06-4.78-31.3,5.68-39.12,23.97s-4.41,37.8,9.44,45.39
		c-0.76-0.24-1.52-0.51-2.27-0.83c-15.49-6.63-21.39-27.59-13.16-46.81S132.97,152.91,148.46,159.55z"/>
</g>
<g>
	
		<ellipse transform="matrix(0.9729 -0.2311 0.2311 0.9729 -69.1504 19.7777)" class="st2" cx="49.84" cy="305.03" rx="23.21" ry="22.98"/>
	<path class="st3" d="M44.53,282.66c0.6-0.14,1.2-0.25,1.81-0.35c-11.42,3.67-18.3,15.47-15.5,27.23
		c2.79,11.75,14.24,19.21,26.09,17.35c-0.58,0.19-1.17,0.36-1.77,0.5c-12.47,2.96-24.96-4.65-27.9-17S32.05,285.63,44.53,282.66z"/>
</g>
<path class="st4" d="M318.05,12.15c-6.84-2.09,20.49,36.2,29.68,48.89v0c0,0,9.47,16.2,12.29,21.97
	c9.02,19.54,15.58,40.3,18.27,61.63c4.54,36.07-4.79,79.96-43.76,92.37c-11.42,3.64-24.6,3.62-36.47,3.06
	c-14.28-0.67-28.5-2.91-42.56-5.38c-12.02-2.12-24.12-5.03-36.27-6.27c-0.66-0.07-1.32-0.13-1.66-0.17
	c-1.75-0.2-3.51-0.39-5.27-0.55c-2.93-0.27-5.86-0.48-8.8-0.62c-5.9-0.27-11.81-0.25-17.71,0.16c-3.42,0.24-6.82,0.66-10.22,1.09
	c-1.01,0.13-2.03,0.24-3.05,0.37c-0.23,0.04-0.45,0.08-0.63,0.11c-5.58,0.87-11.13,1.78-16.61,3.16c-3.11,0.79-6.18,1.7-9.19,2.8
	c0,0-0.35,0.15-0.99,0.44c0,0,0,0,0,0c-1.07,0.49-2.45,1.15-3.25,1.59c-0.32,0.17-0.63,0.36-0.94,0.54
	c-11.88,6.47-41.18,25.77-55.45,64.84c0,0-9.65,23.66-7.13,63.65c1.07,16.52-1.33,32.78-15.03,44.67
	c45.22,52.28,112.02,85.36,186.57,85.36c136.21,0,246.64-110.42,246.64-246.64C496.53,136.65,421.11,41.73,318.05,12.15z"/>
<path class="st5" d="M366.32,10.4"/>
<path class="st5" d="M415.55,54.91"/>
<path class="st5" d="M115.77,231.94"/>
<path class="st5" d="M150.15,268.87"/>
<g>
	
		<ellipse transform="matrix(0.2722 -0.9622 0.9622 0.2722 -174.7353 475.1727)" class="st2" cx="226.76" cy="353.1" rx="42.66" ry="30.62"/>
	<path class="st3" d="M238.38,312.05c-0.79-0.22-1.58-0.39-2.37-0.52c14.71,5.95,18.29,26.15,12.19,47.73
		c-6.1,21.58-19.69,36.74-35.34,34.1c0.75,0.3,1.51,0.58,2.29,0.8c16.27,4.6,34.67-10.04,41.08-32.72
		C262.64,338.76,254.65,316.65,238.38,312.05z"/>
</g>
<g>
	
		<ellipse transform="matrix(0.2722 -0.9622 0.9622 0.2722 -146.7253 374.7386)" class="st2" cx="174.37" cy="284.37" rx="13.3" ry="13.22"/>
	<path class="st3" d="M177.99,271.57c-0.34-0.1-0.68-0.17-1.02-0.24c6.41,2.37,10.01,9.34,8.11,16.06
		c-1.9,6.72-8.62,10.77-15.32,9.44c0.33,0.12,0.66,0.23,0.99,0.33c7.03,1.99,14.34-2.13,16.34-9.2
		C189.09,280.9,185.02,273.56,177.99,271.57z"/>
</g>
<g>
	
		<ellipse transform="matrix(0.2722 -0.9622 0.9622 0.2722 -208.1934 414.249)" class="st2" cx="169.76" cy="344.76" rx="8.34" ry="8.3"/>
	<path class="st3" d="M172.03,336.73c-0.21-0.06-0.43-0.11-0.64-0.15c4.02,1.49,6.28,5.86,5.09,10.08
		c-1.19,4.22-5.41,6.76-9.61,5.92c0.2,0.08,0.41,0.15,0.62,0.21c4.41,1.25,9-1.34,10.25-5.77
		C179,342.58,176.44,337.98,172.03,336.73z"/>
</g>
<g>
	
		<ellipse transform="matrix(0.2218 -0.9751 0.9751 0.2218 -276.6525 477.5555)" class="st2" cx="160.87" cy="412.11" rx="18.27" ry="13.78"/>
	<path class="st3" d="M164.93,394.29c-0.36-0.08-0.72-0.14-1.08-0.18c6.76,2.29,10.47,11.21,8.34,20.57
		c-2.13,9.36-9.33,15.8-16.41,14.94c0.34,0.12,0.69,0.22,1.05,0.3c7.42,1.69,15.25-4.92,17.49-14.76S172.35,395.98,164.93,394.29z"
		/>
</g>
<g>
	<ellipse class="st2" cx="296.47" cy="274.23" rx="11.31" ry="12.51"/>
	<path class="st3" d="M296.47,261.72c-0.3,0-0.6,0.02-0.9,0.04c5.83,0.51,10.42,5.89,10.42,12.47c0,6.58-4.59,11.96-10.42,12.47
		c0.3,0.03,0.59,0.04,0.9,0.04c6.25,0,11.31-5.6,11.31-12.51C307.78,267.32,302.71,261.72,296.47,261.72z"/>
</g>
<g>
	<ellipse class="st2" cx="398.58" cy="297.48" rx="22.19" ry="23.25"/>
	<path class="st3" d="M398.58,274.23c-0.59,0-1.18,0.03-1.76,0.08c11.44,0.94,18.6,10.95,18.6,23.17c0,12.22-7.17,22.23-18.6,23.17
		c0.58,0.05,1.16,0.08,1.76,0.08c12.26,0,22.19-10.41,22.19-23.25C420.77,284.64,410.84,274.23,398.58,274.23z"/>
</g>
<g>
	
		<ellipse transform="matrix(0.3817 -0.9243 0.9243 0.3817 28.4473 431.2202)" class="st2" cx="336.55" cy="194.35" rx="5.71" ry="6.08"/>
	<path class="st3" d="M338.73,189.07c-0.15-0.06-0.3-0.12-0.45-0.17c2.81,1.41,4.15,4.62,3,7.39c-1.14,2.77-4.36,4.1-7.34,3.12
		c0.14,0.07,0.29,0.14,0.44,0.2c3.1,1.28,6.59-0.04,7.8-2.95C343.37,193.75,341.83,190.35,338.73,189.07z"/>
</g>
<g class="st6">
	<g>
		<path class="st7" d="M182.82,106.2c1.3,0,2.99-1.97,1.04-1.97C182.56,104.23,180.87,106.2,182.82,106.2L182.82,106.2z"/>
	</g>
</g>
</svg>
