<?xml version="1.0" encoding="utf-8"?>
<!-- Generator: Adobe Illustrator 23.0.3, SVG Export Plug-In . SVG Version: 6.00 Build 0)  -->
<svg version="1.1" id="Слой_1" xmlns="http://www.w3.org/2000/svg" xmlns:xlink="http://www.w3.org/1999/xlink" x="0px" y="0px"
	 viewBox="0 0 500 500" style="enable-background:new 0 0 500 500;" xml:space="preserve">
<style type="text/css">
	.st0{fill:#F5F6FA;}
	.st1{fill:#2F3542;}
	.st2{fill:#FF709B;}
	.st3{fill:#FF4757;}
	.st4{fill:url(#SVGID_1_);}
	.st5{fill:url(#SVGID_2_);}
	.st6{fill:#FF7675;}
</style>
<g>
	<g>
		<path class="st0" d="M155.97,451.36c-4.43-2.81-5.9-8.33-5.9-8.33C83.95,147.83,214.12,26.72,250.07-0.37
			c-39.15,27.09-180.89,148.19-108.9,443.39c0,0,3.32,11.42,14.75,9.79c-0.06,0.01-0.03,0,0.01,0l1.05,0
			C156.63,452.33,156.29,451.85,155.97,451.36z"/>
	</g>
	<g>
		<path class="st0" d="M344.18,451.36c4.43-2.81,5.9-8.33,5.9-8.33c66.11-295.2-64.06-416.3-100.01-443.39
			c39.15,27.09,180.89,148.19,108.9,443.39c0,0-3.32,11.42-14.75,9.79c0.06,0.01,0.03,0-0.01,0l-1.05,0
			C343.52,452.33,343.86,451.85,344.18,451.36z"/>
	</g>
	<path class="st1" d="M172.41,452.98v11.63c0,0,0,5.24,3.39,4.62c3.39-0.62,74.28-1.16,74.28-1.16v-15.1"/>
	<path class="st1" d="M327.74,452.98v11.63c0,0,0,5.24-3.39,4.62c-3.39-0.62-74.28-1.16-74.28-1.16v-15.1"/>
	<path class="st2" d="M211.24,468.46"/>
	<path class="st2" d="M220.79,467.73"/>
	<path class="st2" d="M189.05,500.37"/>
	<path class="st1" d="M305.54,494.2l-22.81-25.74l-32.66-0.38v0l-0.16,0l-0.16,0v0l-32.66,0.38l-22.81,25.74
		c0,0-1.73,3.87,4.12,3.78l0,0.01l7.63-0.2l43.88-0.19l48.92,0.21l0.41,0.03c0.22,0.03,0.26,0,0.47,0.03
		C307.59,498.77,305.54,494.2,305.54,494.2z"/>
	<circle class="st3" cx="250.07" cy="157.45" r="60.79"/>
	<circle class="st1" cx="249.61" cy="157.45" r="53.32"/>
	<linearGradient id="SVGID_1_" gradientUnits="userSpaceOnUse" x1="196.2925" y1="157.4545" x2="302.9315" y2="157.4545">
		<stop  offset="4.741732e-07" style="stop-color:#636363"/>
		<stop  offset="1" style="stop-color:#404040"/>
	</linearGradient>
	<circle class="st4" cx="249.61" cy="157.45" r="53.32"/>
	<linearGradient id="SVGID_2_" gradientUnits="userSpaceOnUse" x1="249.612" y1="14.3252" x2="249.612" y2="14.3252">
		<stop  offset="4.741732e-07" style="stop-color:#636363"/>
		<stop  offset="1" style="stop-color:#404040"/>
	</linearGradient>
	<path class="st5" d="M249.61,14.33"/>
	<path class="st3" d="M196.6,49.66c0,0,40.22,17.16,106.64,0l12.17,15.77c0,0-62.86,13.2-130.67,0L196.6,49.66z"/>
	<g>
		<circle class="st3" cx="250.07" cy="368.25" r="8.78"/>
		<circle class="st3" cx="250.07" cy="333.57" r="8.78"/>
		<circle class="st3" cx="250.07" cy="298.9" r="8.78"/>
	</g>
	<path class="st6" d="M346.44,452.98"/>
	<path class="st3" d="M373.28,370.23l-12.98,52.6c-113.83-12.58-201.71-2.58-220.63-0.08l-12.96-52.52c0,0-110.88,23.5-96.09,120.89
		l113.42-37.13l10.89-1.18h186.4c0.14,0.15,0.61,0.21,1.5,0.16c7.7-0.44,17.84,2.57,17.85,2.58l108.67,35.57
		C484.16,393.73,373.28,370.23,373.28,370.23z"/>
	<path class="st6" d="M357.54,463.28"/>
	<path class="st6" d="M352.09,479.2"/>
</g>
</svg>
